<?xml version="1.0" encoding="utf-8"?>
<!-- Generator: Adobe Illustrator 28.3.0, SVG Export Plug-In . SVG Version: 6.00 Build 0)  -->
<svg version="1.1" id="Layer_1" xmlns="http://www.w3.org/2000/svg" xmlns:xlink="http://www.w3.org/1999/xlink" x="0px" y="0px"
	 viewBox="0 0 520 300" style="enable-background:new 0 0 520 300;" xml:space="preserve">
<style type="text/css">
	.st0{fill:#F0EBE3;stroke:#C9B89E;stroke-width:2.5;stroke-linecap:round;stroke-linejoin:round;}
	.st1{fill:none;stroke:#C9B89E;stroke-linecap:round;}
	.st2{fill:#C9B89E;}
	.st3{enable-background:new    ;}
	.st4{fill:#7A5230;}
	.st5{fill:none;stroke:#7A5230;stroke-width:1.5;stroke-linecap:round;stroke-dasharray:6,4;}
	.st6{fill:none;stroke:#96673F;stroke-width:1.5;stroke-linecap:round;stroke-dasharray:6,4;}
	.st7{fill:#FFDAD4;stroke:#96673F;stroke-miterlimit:10;}
	.st8{fill:none;stroke:#7A5230;stroke-linecap:round;stroke-linejoin:round;}
	.st9{fill:none;stroke:#B8860B;stroke-width:2;}
	.st10{fill:#B8860B;}
	.st11{fill:none;stroke:#B8860B;stroke-linecap:round;}
	.st12{fill:none;stroke:#2C2420;stroke-width:3.5;stroke-linecap:round;}
	.st13{fill:none;stroke:#2C2420;stroke-width:2.5;stroke-linecap:round;}
	.st14{fill:#2C2420;}
	.st15{fill:none;stroke:#A08987;stroke-linecap:round;}
</style>
<path id="banana" class="st0" d="M75,245c5-65,65-175,175-195c90-15,170,15,190,75c-15-5-90,5-185,10S95,200,75,245z"/>
<line class="st1" x1="190" y1="142.2" x2="190" y2="194.6"/>
<circle class="st2" cx="190" cy="142.2" r="2"/>
<g>
	<g class="st3">
		<path class="st4" d="M143.4,207.6c-0.6,0-1.1-0.1-1.5-0.3s-0.8-0.4-1-0.8s-0.4-0.7-0.4-1.2h1c0,0.3,0.1,0.5,0.3,0.7
			s0.4,0.3,0.7,0.4c0.3,0.1,0.6,0.1,0.9,0.1c0.4,0,0.7-0.1,1-0.2c0.3-0.1,0.5-0.3,0.7-0.5s0.3-0.5,0.3-0.7c0-0.3-0.1-0.5-0.2-0.6
			c-0.1-0.2-0.3-0.3-0.6-0.4s-0.5-0.2-0.8-0.3l-1-0.3c-0.6-0.2-1.1-0.4-1.5-0.8s-0.5-0.8-0.5-1.3s0.1-0.8,0.4-1.2
			c0.2-0.3,0.6-0.6,1-0.8s0.9-0.3,1.4-0.3s1,0.1,1.4,0.3s0.7,0.4,1,0.8c0.2,0.3,0.4,0.7,0.4,1.1h-1c0-0.4-0.2-0.7-0.6-0.9
			s-0.7-0.3-1.2-0.3c-0.3,0-0.6,0.1-0.9,0.2c-0.3,0.1-0.5,0.3-0.6,0.5s-0.2,0.4-0.2,0.7s0.1,0.5,0.3,0.7s0.4,0.3,0.6,0.4
			c0.2,0.1,0.5,0.2,0.6,0.2l0.8,0.2c0.2,0.1,0.5,0.1,0.7,0.2c0.3,0.1,0.5,0.2,0.7,0.4s0.4,0.4,0.6,0.6c0.2,0.3,0.2,0.6,0.2,0.9
			c0,0.4-0.1,0.8-0.3,1.2s-0.6,0.6-1,0.8C144.5,207.5,144,207.6,143.4,207.6z"/>
		<path class="st4" d="M150.3,207.6c-0.6,0-1.1-0.1-1.5-0.4c-0.4-0.3-0.7-0.6-1-1.1c-0.2-0.5-0.3-1-0.3-1.6s0.1-1.2,0.3-1.6
			c0.2-0.5,0.5-0.8,0.9-1.1s0.9-0.4,1.4-0.4c0.3,0,0.6,0.1,0.9,0.2c0.3,0.1,0.6,0.3,0.8,0.5c0.3,0.2,0.5,0.5,0.6,0.9
			c0.2,0.4,0.2,0.9,0.2,1.4v0.4h-4.7V204h4.1l-0.5,0.3c0-0.4-0.1-0.7-0.2-1c-0.1-0.3-0.3-0.5-0.6-0.7s-0.5-0.3-0.9-0.3
			s-0.7,0.1-0.9,0.3c-0.3,0.2-0.5,0.4-0.6,0.7s-0.2,0.6-0.2,0.9v0.5c0,0.4,0.1,0.8,0.2,1.1s0.4,0.5,0.6,0.7c0.3,0.2,0.6,0.2,1,0.2
			c0.2,0,0.5,0,0.6-0.1c0.2-0.1,0.4-0.2,0.5-0.3s0.2-0.3,0.3-0.5l0.9,0.3c-0.1,0.3-0.3,0.6-0.5,0.8s-0.5,0.4-0.8,0.5
			C151.1,207.5,150.7,207.6,150.3,207.6z"/>
		<path class="st4" d="M156.6,209.8c-0.4,0-0.8-0.1-1.2-0.2c-0.3-0.1-0.6-0.3-0.8-0.4c-0.2-0.2-0.4-0.4-0.5-0.6l0.8-0.5
			c0.1,0.1,0.2,0.2,0.3,0.4c0.1,0.1,0.3,0.3,0.5,0.4c0.2,0.1,0.5,0.1,0.9,0.1c0.5,0,0.9-0.1,1.2-0.3s0.5-0.6,0.5-1.1v-1.2h-0.1
			c-0.1,0.1-0.2,0.3-0.3,0.4c-0.1,0.2-0.3,0.3-0.5,0.4c-0.2,0.1-0.5,0.2-0.9,0.2c-0.5,0-0.9-0.1-1.3-0.3s-0.7-0.6-0.9-1
			s-0.3-1-0.3-1.6s0.1-1.2,0.3-1.6c0.2-0.5,0.5-0.8,0.9-1.1s0.8-0.4,1.3-0.4c0.4,0,0.7,0.1,0.9,0.2c0.2,0.1,0.4,0.3,0.5,0.4
			c0.1,0.2,0.2,0.3,0.3,0.4h0.1v-1h0.9v6.2c0,0.5-0.1,0.9-0.3,1.3c-0.2,0.3-0.5,0.6-0.9,0.7C157.5,209.7,157.1,209.8,156.6,209.8z
			 M156.6,206.5c0.4,0,0.7-0.1,0.9-0.2c0.3-0.2,0.4-0.4,0.6-0.7s0.2-0.7,0.2-1.1c0-0.4-0.1-0.8-0.2-1.1c-0.1-0.3-0.3-0.6-0.6-0.8
			s-0.6-0.3-0.9-0.3c-0.4,0-0.7,0.1-1,0.3s-0.4,0.5-0.6,0.8c-0.1,0.3-0.2,0.7-0.2,1.1c0,0.4,0.1,0.8,0.2,1.1
			c0.1,0.3,0.3,0.6,0.6,0.7C155.9,206.4,156.2,206.5,156.6,206.5z"/>
		<path class="st4" d="M160.9,207.4v-6h0.9v1.3h-0.1c0.1-0.3,0.2-0.6,0.4-0.8s0.4-0.4,0.6-0.5c0.2-0.1,0.5-0.2,0.7-0.2
			c0.4,0,0.8,0.1,1.1,0.4c0.3,0.3,0.4,0.6,0.5,1.1l0,0c0.1-0.3,0.2-0.6,0.4-0.8s0.4-0.4,0.7-0.5s0.6-0.2,0.9-0.2
			c0.3,0,0.7,0.1,1,0.2s0.5,0.4,0.7,0.7s0.3,0.7,0.3,1.2v4h-1v-4c0-0.4-0.1-0.7-0.4-0.9s-0.5-0.3-0.8-0.3s-0.5,0.1-0.7,0.2
			c-0.2,0.1-0.3,0.3-0.5,0.5c-0.1,0.2-0.2,0.4-0.2,0.7v3.9h-1v-4.1c0-0.3-0.1-0.6-0.3-0.8s-0.5-0.3-0.8-0.3c-0.2,0-0.5,0.1-0.7,0.2
			c-0.2,0.1-0.4,0.3-0.5,0.5s-0.2,0.5-0.2,0.8v3.8L160.9,207.4L160.9,207.4z"/>
		<path class="st4" d="M173.1,207.6c-0.6,0-1.1-0.1-1.5-0.4c-0.4-0.3-0.7-0.6-1-1.1c-0.2-0.5-0.3-1-0.3-1.6s0.1-1.2,0.3-1.6
			c0.2-0.5,0.5-0.8,0.9-1.1s0.9-0.4,1.4-0.4c0.3,0,0.6,0.1,0.9,0.2c0.3,0.1,0.6,0.3,0.8,0.5c0.3,0.2,0.5,0.5,0.6,0.9
			c0.2,0.4,0.2,0.9,0.2,1.4v0.4h-4.7V204h4.1l-0.5,0.3c0-0.4-0.1-0.7-0.2-1c-0.1-0.3-0.3-0.5-0.6-0.7s-0.5-0.3-0.9-0.3
			s-0.7,0.1-0.9,0.3c-0.3,0.2-0.5,0.4-0.6,0.7s-0.2,0.6-0.2,0.9v0.5c0,0.4,0.1,0.8,0.2,1.1s0.4,0.5,0.6,0.7c0.3,0.2,0.6,0.2,1,0.2
			c0.2,0,0.5,0,0.6-0.1c0.2-0.1,0.4-0.2,0.5-0.3s0.2-0.3,0.3-0.5l0.9,0.3c-0.1,0.3-0.3,0.6-0.5,0.8s-0.5,0.4-0.8,0.5
			C173.9,207.5,173.5,207.6,173.1,207.6z"/>
		<path class="st4" d="M177.9,203.8v3.6h-1v-6h0.9v1.5h-0.1c0.2-0.6,0.4-0.9,0.8-1.2c0.3-0.2,0.7-0.3,1.2-0.3c0.4,0,0.8,0.1,1.1,0.2
			c0.3,0.2,0.5,0.4,0.7,0.8c0.2,0.3,0.3,0.8,0.3,1.3v3.8h-1v-3.7c0-0.5-0.1-0.8-0.4-1.1c-0.2-0.3-0.6-0.4-1-0.4
			c-0.3,0-0.5,0.1-0.8,0.2c-0.2,0.1-0.4,0.3-0.5,0.5C178,203.2,177.9,203.5,177.9,203.8z"/>
		<path class="st4" d="M185.8,201.4v0.8h-3.1v-0.8H185.8z M183.6,200h1v5.9c0,0.3,0.1,0.5,0.2,0.6c0.1,0.1,0.3,0.2,0.5,0.2
			c0.1,0,0.1,0,0.2,0c0.1,0,0.2,0,0.3,0l0.2,0.8c-0.1,0-0.2,0.1-0.3,0.1s-0.3,0-0.4,0c-0.5,0-0.9-0.1-1.2-0.4
			c-0.3-0.3-0.4-0.7-0.4-1.1V200H183.6z"/>
		<path class="st4" d="M188.7,207.6c-0.4,0-0.7-0.1-1-0.2c-0.3-0.1-0.6-0.4-0.7-0.6c-0.2-0.3-0.3-0.6-0.3-1c0-0.3,0.1-0.6,0.2-0.8
			s0.3-0.4,0.5-0.5s0.5-0.2,0.8-0.3s0.6-0.1,0.8-0.1c0.4,0,0.6-0.1,0.9-0.1c0.2,0,0.4-0.1,0.5-0.1c0.1-0.1,0.2-0.2,0.2-0.3l0,0
			c0-0.3,0-0.5-0.1-0.6s-0.2-0.3-0.4-0.4s-0.4-0.1-0.7-0.1s-0.5,0-0.7,0.1s-0.4,0.2-0.5,0.3s-0.2,0.3-0.3,0.4L187,203
			c0.2-0.4,0.4-0.7,0.6-0.9s0.5-0.4,0.9-0.4s0.6-0.1,0.9-0.1c0.2,0,0.4,0,0.7,0.1c0.3,0,0.5,0.1,0.7,0.3c0.2,0.1,0.4,0.4,0.6,0.6
			c0.2,0.3,0.2,0.7,0.2,1.1v4h-1v-0.8h-0.1c-0.1,0.1-0.2,0.3-0.3,0.4s-0.3,0.3-0.6,0.4S189.1,207.6,188.7,207.6z M188.9,206.7
			c0.4,0,0.7-0.1,0.9-0.2s0.4-0.3,0.6-0.5s0.2-0.5,0.2-0.7v-0.8c0,0-0.1,0.1-0.3,0.1c-0.1,0-0.3,0.1-0.5,0.1s-0.3,0.1-0.5,0.1
			s-0.3,0-0.4,0c-0.2,0-0.5,0.1-0.7,0.1c-0.2,0.1-0.4,0.2-0.5,0.3s-0.2,0.3-0.2,0.5s0.1,0.4,0.2,0.5s0.3,0.2,0.4,0.3
			C188.5,206.7,188.7,206.7,188.9,206.7z"/>
		<path class="st4" d="M195.6,201.4v0.8h-3.1v-0.8H195.6z M193.4,200h1v5.9c0,0.3,0.1,0.5,0.2,0.6c0.1,0.1,0.3,0.2,0.5,0.2
			c0.1,0,0.1,0,0.2,0c0.1,0,0.2,0,0.3,0l0.2,0.8c-0.1,0-0.2,0.1-0.3,0.1s-0.3,0-0.4,0c-0.5,0-0.9-0.1-1.2-0.4
			c-0.3-0.3-0.4-0.7-0.4-1.1V200H193.4z"/>
		<path class="st4" d="M197.3,200.4c-0.2,0-0.3-0.1-0.5-0.2s-0.2-0.3-0.2-0.5s0.1-0.3,0.2-0.5c0.1-0.1,0.3-0.2,0.5-0.2
			s0.3,0.1,0.5,0.2c0.1,0.1,0.2,0.3,0.2,0.5s-0.1,0.3-0.2,0.5S197.5,200.4,197.3,200.4z M196.8,207.4v-6h1v6H196.8z"/>
		<path class="st4" d="M201.9,207.6c-0.5,0-1-0.1-1.4-0.4c-0.4-0.3-0.7-0.6-1-1.1s-0.3-1-0.3-1.6s0.1-1.2,0.3-1.6
			c0.2-0.5,0.5-0.8,1-1.1c0.4-0.3,0.9-0.4,1.4-0.4s1,0.1,1.4,0.4s0.7,0.6,1,1.1c0.2,0.5,0.3,1,0.3,1.6s-0.1,1.2-0.3,1.6
			s-0.5,0.8-1,1.1S202.5,207.6,201.9,207.6z M201.9,206.7c0.4,0,0.7-0.1,1-0.3s0.5-0.5,0.6-0.8s0.2-0.7,0.2-1.1
			c0-0.4-0.1-0.8-0.2-1.1s-0.3-0.6-0.6-0.8s-0.6-0.3-1-0.3s-0.7,0.1-1,0.3s-0.4,0.5-0.6,0.8c-0.1,0.3-0.2,0.7-0.2,1.1
			c0,0.4,0.1,0.8,0.2,1.1c0.1,0.3,0.3,0.6,0.6,0.8C201.2,206.6,201.5,206.7,201.9,206.7z"/>
		<path class="st4" d="M207.1,203.8v3.6h-1v-6h0.9v1.5h-0.1c0.2-0.6,0.4-0.9,0.8-1.2c0.3-0.2,0.7-0.3,1.2-0.3c0.4,0,0.8,0.1,1.1,0.2
			c0.3,0.2,0.5,0.4,0.7,0.8c0.2,0.3,0.3,0.8,0.3,1.3v3.8h-1v-3.7c0-0.5-0.1-0.8-0.4-1.1c-0.2-0.3-0.6-0.4-1-0.4
			c-0.3,0-0.5,0.1-0.8,0.2c-0.2,0.1-0.4,0.3-0.5,0.5C207.1,203.2,207.1,203.5,207.1,203.8z"/>
		<path class="st4" d="M215.7,207.4v-6h0.9v1.3h-0.1c0.1-0.3,0.2-0.6,0.4-0.8s0.4-0.4,0.6-0.5s0.5-0.2,0.7-0.2
			c0.4,0,0.8,0.1,1.1,0.4c0.3,0.3,0.4,0.6,0.5,1.1h-0.1c0.1-0.3,0.2-0.6,0.4-0.8s0.4-0.4,0.7-0.5s0.6-0.2,0.9-0.2
			c0.3,0,0.7,0.1,1,0.2c0.3,0.2,0.5,0.4,0.7,0.7s0.3,0.7,0.3,1.2v4h-1v-4c0-0.4-0.1-0.7-0.4-0.9s-0.5-0.3-0.8-0.3s-0.5,0.1-0.7,0.2
			c-0.2,0.1-0.3,0.3-0.5,0.5s-0.2,0.4-0.2,0.7v3.9h-1v-4.1c0-0.3-0.1-0.6-0.3-0.8s-0.5-0.3-0.8-0.3c-0.2,0-0.5,0.1-0.7,0.2
			s-0.4,0.3-0.5,0.5s-0.2,0.5-0.2,0.8v3.8L215.7,207.4L215.7,207.4z"/>
		<path class="st4" d="M227,207.6c-0.4,0-0.7-0.1-1-0.2s-0.6-0.4-0.7-0.6c-0.2-0.3-0.3-0.6-0.3-1c0-0.3,0.1-0.6,0.2-0.8
			s0.3-0.4,0.5-0.5s0.5-0.2,0.8-0.3s0.6-0.1,0.8-0.1c0.4,0,0.6-0.1,0.9-0.1c0.2,0,0.4-0.1,0.5-0.1c0.1-0.1,0.2-0.2,0.2-0.3l0,0
			c0-0.3,0-0.5-0.1-0.6s-0.2-0.3-0.4-0.4s-0.4-0.1-0.7-0.1s-0.5,0-0.7,0.1s-0.4,0.2-0.5,0.3s-0.2,0.3-0.3,0.4l-0.9-0.3
			c0.2-0.4,0.4-0.7,0.6-0.9s0.5-0.4,0.9-0.4c0.3-0.1,0.6-0.1,0.9-0.1c0.2,0,0.4,0,0.7,0.1c0.3,0,0.5,0.1,0.7,0.3
			c0.2,0.1,0.4,0.4,0.6,0.6c0.2,0.3,0.2,0.7,0.2,1.1v4h-1v-0.8h-0.1c-0.1,0.1-0.2,0.3-0.3,0.4s-0.3,0.3-0.6,0.4
			C227.6,207.5,227.3,207.6,227,207.6z M227.2,206.7c0.4,0,0.7-0.1,0.9-0.2c0.2-0.1,0.4-0.3,0.6-0.5s0.2-0.5,0.2-0.7v-0.8
			c0,0-0.1,0.1-0.3,0.1c-0.1,0-0.3,0.1-0.5,0.1s-0.3,0.1-0.5,0.1s-0.3,0-0.4,0c-0.2,0-0.5,0.1-0.7,0.1c-0.2,0.1-0.4,0.2-0.5,0.3
			s-0.2,0.3-0.2,0.5s0.1,0.4,0.2,0.5s0.3,0.2,0.4,0.3C226.7,206.7,226.9,206.7,227.2,206.7z"/>
		<path class="st4" d="M233.5,207.6c-0.4,0-0.8-0.1-1.1-0.2s-0.6-0.3-0.8-0.5s-0.3-0.5-0.4-0.9l0.9-0.2c0.1,0.3,0.2,0.6,0.5,0.7
			c0.2,0.2,0.5,0.2,0.9,0.2s0.8-0.1,1-0.3s0.4-0.4,0.4-0.6c0-0.2-0.1-0.4-0.2-0.5c-0.1-0.1-0.4-0.2-0.7-0.3l-1-0.2
			c-0.5-0.1-0.9-0.3-1.2-0.6s-0.4-0.6-0.4-1c0-0.3,0.1-0.6,0.3-0.9c0.2-0.3,0.5-0.5,0.8-0.6s0.7-0.2,1.1-0.2c0.4,0,0.8,0.1,1,0.2
			c0.3,0.1,0.5,0.3,0.7,0.5s0.3,0.5,0.4,0.8l-0.9,0.2c-0.1-0.2-0.2-0.4-0.4-0.6s-0.5-0.3-0.9-0.3s-0.7,0.1-0.9,0.2
			c-0.2,0.2-0.4,0.4-0.4,0.6c0,0.2,0.1,0.4,0.2,0.5c0.2,0.1,0.4,0.2,0.8,0.3l0.9,0.2c0.5,0.1,0.9,0.3,1.2,0.6s0.4,0.6,0.4,1
			s-0.1,0.7-0.3,0.9c-0.2,0.3-0.5,0.5-0.8,0.6S234,207.6,233.5,207.6z"/>
		<path class="st4" d="M237.3,207.4v-8h1v8H237.3z M238.2,205.3v-1.2h0.2l2.6-2.6h1.2l-2.8,2.9h-0.1L238.2,205.3z M241.1,207.4
			l-2.3-2.9l0.7-0.7l2.9,3.6L241.1,207.4L241.1,207.4z"/>
	</g>
</g>
<line id="major-axis" class="st5" x1="50" y1="183" x2="470" y2="44"/>
<g>
	<g class="st3">
		<path class="st4" d="M427.2,39.3v-8h1.5l2,5c0,0.1,0.1,0.3,0.2,0.4c0.1,0.2,0.1,0.4,0.2,0.6s0.1,0.4,0.2,0.6
			c0.1,0.2,0.1,0.4,0.2,0.6h-0.2c0.1-0.2,0.1-0.3,0.2-0.6c0.1-0.2,0.1-0.4,0.2-0.6c0.1-0.2,0.1-0.4,0.2-0.6c0.1-0.2,0.1-0.3,0.2-0.5
			l1.9-5h1.5v8h-1v-4.6c0-0.2,0-0.4,0-0.6s0-0.4,0-0.7c0-0.2,0-0.5,0-0.7s0-0.5,0-0.7h0.1c-0.1,0.2-0.2,0.5-0.2,0.8
			c-0.1,0.3-0.2,0.5-0.2,0.7c-0.1,0.2-0.2,0.5-0.2,0.7c-0.1,0.2-0.1,0.4-0.2,0.5l-1.8,4.6h-0.9l-1.8-4.6c-0.1-0.1-0.1-0.3-0.2-0.5
			s-0.1-0.4-0.2-0.6c-0.1-0.2-0.2-0.5-0.2-0.7s-0.2-0.5-0.3-0.8h0.1c0,0.2,0,0.4,0,0.6c0,0.2,0,0.5,0,0.7s0,0.5,0,0.7s0,0.4,0,0.6
			v4.6L427.2,39.3L427.2,39.3z"/>
		<path class="st4" d="M438.7,39.4c-0.4,0-0.7-0.1-1-0.2c-0.3-0.1-0.6-0.4-0.7-0.6c-0.2-0.3-0.3-0.6-0.3-1c0-0.3,0.1-0.6,0.2-0.8
			s0.3-0.4,0.5-0.5s0.5-0.2,0.8-0.3s0.6-0.1,0.8-0.1c0.4,0,0.7-0.1,0.9-0.1c0.2,0,0.4-0.1,0.5-0.1c0.1-0.1,0.2-0.2,0.2-0.3l0,0
			c0-0.3,0-0.5-0.1-0.6c-0.1-0.2-0.2-0.3-0.4-0.4c-0.2-0.1-0.4-0.1-0.7-0.1c-0.3,0-0.5,0-0.7,0.1s-0.4,0.2-0.5,0.3s-0.2,0.3-0.3,0.4
			l-0.9-0.3c0.2-0.4,0.4-0.7,0.6-0.9c0.3-0.2,0.5-0.4,0.9-0.4c0.3-0.1,0.6-0.1,0.9-0.1c0.2,0,0.4,0,0.7,0.1c0.3,0,0.5,0.1,0.7,0.3
			c0.2,0.1,0.4,0.4,0.6,0.6c0.2,0.3,0.2,0.7,0.2,1.1v4h-1v-0.8h-0.1c-0.1,0.1-0.2,0.3-0.3,0.4s-0.3,0.3-0.6,0.4
			C439.3,39.4,439,39.4,438.7,39.4z M438.9,38.6c0.4,0,0.7-0.1,0.9-0.2s0.4-0.3,0.6-0.5s0.2-0.5,0.2-0.7v-0.8c0,0-0.1,0.1-0.3,0.1
			c-0.1,0-0.3,0.1-0.5,0.1s-0.3,0.1-0.5,0.1s-0.3,0-0.4,0c-0.2,0-0.5,0.1-0.7,0.1c-0.2,0.1-0.4,0.2-0.5,0.3s-0.2,0.3-0.2,0.5
			s0.1,0.4,0.2,0.5s0.3,0.2,0.4,0.3C438.4,38.6,438.6,38.6,438.9,38.6z"/>
		<path class="st4" d="M443.2,33.3h1v6.4c0,0.4-0.1,0.7-0.2,1s-0.3,0.5-0.6,0.6c-0.3,0.1-0.6,0.2-1,0.2h-0.2v-0.9h0.2
			c0.3,0,0.5-0.1,0.6-0.2s0.2-0.4,0.2-0.7V33.3z M443.7,32.3c-0.2,0-0.3-0.1-0.5-0.2c-0.1-0.1-0.2-0.3-0.2-0.5s0.1-0.3,0.2-0.5
			c0.1-0.1,0.3-0.2,0.5-0.2s0.3,0.1,0.5,0.2c0.1,0.1,0.2,0.3,0.2,0.5s-0.1,0.3-0.2,0.5C444,32.3,443.9,32.3,443.7,32.3z"/>
		<path class="st4" d="M448.3,39.4c-0.5,0-1-0.1-1.4-0.4c-0.4-0.3-0.7-0.6-1-1.1c-0.2-0.5-0.3-1-0.3-1.6s0.1-1.2,0.3-1.6
			c0.2-0.5,0.5-0.8,1-1.1c0.4-0.3,0.9-0.4,1.4-0.4s1,0.1,1.4,0.4c0.4,0.3,0.7,0.6,1,1.1c0.2,0.5,0.3,1,0.3,1.6s-0.1,1.2-0.3,1.6
			c-0.2,0.5-0.5,0.8-1,1.1C449.3,39.3,448.8,39.4,448.3,39.4z M448.3,38.6c0.4,0,0.7-0.1,1-0.3s0.5-0.5,0.6-0.8s0.2-0.7,0.2-1.1
			c0-0.4-0.1-0.8-0.2-1.1s-0.3-0.6-0.6-0.8c-0.3-0.2-0.6-0.3-1-0.3s-0.7,0.1-1,0.3s-0.4,0.5-0.6,0.8c-0.1,0.3-0.2,0.7-0.2,1.1
			c0,0.4,0.1,0.8,0.2,1.1s0.3,0.6,0.6,0.8S447.9,38.6,448.3,38.6z"/>
		<path class="st4" d="M452.4,39.3v-6h0.9v0.9h0.1c0.1-0.3,0.3-0.5,0.6-0.7c0.3-0.2,0.6-0.3,1-0.3c0.1,0,0.2,0,0.3,0
			c0.1,0,0.2,0,0.2,0v1c0,0-0.1,0-0.2,0s-0.2,0-0.4,0c-0.3,0-0.5,0.1-0.8,0.2s-0.4,0.3-0.5,0.5s-0.2,0.5-0.2,0.7v3.8h-1V39.3z"/>
		<path class="st4" d="M461.4,39.4c-0.4,0-0.7-0.1-1-0.2s-0.6-0.4-0.7-0.6c-0.2-0.3-0.3-0.6-0.3-1c0-0.3,0.1-0.6,0.2-0.8
			s0.3-0.4,0.5-0.5s0.5-0.2,0.8-0.3s0.6-0.1,0.8-0.1c0.4,0,0.6-0.1,0.9-0.1c0.2,0,0.4-0.1,0.5-0.1c0.1-0.1,0.2-0.2,0.2-0.3l0,0
			c0-0.3,0-0.5-0.1-0.6c-0.1-0.2-0.2-0.3-0.4-0.4c-0.2-0.1-0.4-0.1-0.7-0.1c-0.3,0-0.5,0-0.7,0.1s-0.4,0.2-0.5,0.3s-0.2,0.3-0.3,0.4
			l-0.9-0.3c0.2-0.4,0.4-0.7,0.6-0.9c0.3-0.2,0.5-0.4,0.9-0.4c0.3-0.1,0.6-0.1,0.9-0.1c0.2,0,0.4,0,0.7,0.1c0.3,0,0.5,0.1,0.7,0.3
			c0.2,0.1,0.4,0.4,0.6,0.6c0.2,0.3,0.2,0.7,0.2,1.1v4h-1v-0.8h-0.1c-0.1,0.1-0.2,0.3-0.3,0.4s-0.3,0.3-0.6,0.4
			C462,39.4,461.7,39.4,461.4,39.4z M461.5,38.6c0.4,0,0.7-0.1,0.9-0.2s0.4-0.3,0.6-0.5s0.2-0.5,0.2-0.7v-0.8c0,0-0.1,0.1-0.3,0.1
			c-0.1,0-0.3,0.1-0.5,0.1s-0.3,0.1-0.5,0.1s-0.3,0-0.4,0c-0.2,0-0.5,0.1-0.7,0.1c-0.2,0.1-0.4,0.2-0.5,0.3s-0.2,0.3-0.2,0.5
			s0.1,0.4,0.2,0.5s0.3,0.2,0.4,0.3C461.1,38.6,461.3,38.6,461.5,38.6z"/>
		<path class="st4" d="M465.4,39.3l2.4-3.5v0.7l-2.2-3.3h1.1l0.7,1.2c0.2,0.3,0.4,0.6,0.5,0.8s0.3,0.5,0.4,0.8h-0.5
			c0.2-0.2,0.3-0.5,0.4-0.8s0.3-0.5,0.5-0.8l0.8-1.2h1.1l-2.3,3.3v-0.7l2.3,3.4h-1.1l-0.9-1.3c-0.2-0.3-0.4-0.6-0.5-0.8
			c-0.1-0.3-0.3-0.5-0.4-0.7h0.5c-0.1,0.2-0.3,0.5-0.4,0.7c-0.1,0.3-0.3,0.5-0.5,0.8l-0.9,1.3L465.4,39.3L465.4,39.3z"/>
		<path class="st4" d="M472.3,32.3c-0.2,0-0.3-0.1-0.5-0.2c-0.1-0.1-0.2-0.3-0.2-0.5s0.1-0.3,0.2-0.5c0.1-0.1,0.3-0.2,0.5-0.2
			s0.3,0.1,0.5,0.2c0.1,0.1,0.2,0.3,0.2,0.5s-0.1,0.3-0.2,0.5C472.7,32.3,472.5,32.3,472.3,32.3z M471.9,39.3v-6h1v6H471.9z"/>
		<path class="st4" d="M476.6,39.4c-0.4,0-0.8-0.1-1.1-0.2c-0.3-0.1-0.6-0.3-0.8-0.5c-0.2-0.2-0.3-0.5-0.4-0.9l0.9-0.2
			c0.1,0.3,0.2,0.6,0.5,0.7c0.2,0.2,0.5,0.2,0.9,0.2s0.8-0.1,1-0.3s0.4-0.4,0.4-0.6c0-0.2-0.1-0.4-0.2-0.5s-0.4-0.2-0.7-0.3l-1-0.2
			c-0.5-0.1-0.9-0.3-1.2-0.6c-0.3-0.3-0.4-0.6-0.4-1c0-0.3,0.1-0.6,0.3-0.9c0.2-0.3,0.5-0.5,0.8-0.6s0.7-0.2,1.1-0.2s0.8,0.1,1,0.2
			c0.3,0.1,0.5,0.3,0.7,0.5s0.3,0.5,0.4,0.8l-0.9,0.2c-0.1-0.2-0.2-0.4-0.4-0.6s-0.5-0.3-0.9-0.3s-0.7,0.1-0.9,0.2
			c-0.2,0.2-0.4,0.4-0.4,0.6c0,0.2,0.1,0.4,0.2,0.5c0.2,0.1,0.4,0.2,0.8,0.3l0.9,0.2c0.5,0.1,0.9,0.3,1.2,0.6c0.3,0.3,0.4,0.6,0.4,1
			s-0.1,0.7-0.3,0.9c-0.2,0.3-0.5,0.5-0.8,0.6S477,39.4,476.6,39.4z"/>
		<path class="st4" d="M483.7,36c0-0.6,0.1-1.2,0.2-1.8s0.3-1.3,0.5-1.8c0.2-0.6,0.4-1.1,0.7-1.5h0.9c-0.3,0.6-0.5,1.1-0.7,1.8
			s-0.4,1.2-0.5,1.8s-0.2,1.2-0.2,1.7s0,1,0.1,1.4s0.2,1,0.4,1.5c0.2,0.5,0.5,1.1,0.8,1.8H485c-0.5-0.8-0.8-1.6-1-2.4
			C483.9,37.6,483.7,36.8,483.7,36z"/>
		<path class="st4" d="M487.6,39.3v-8h2.7c0.6,0,1.1,0.1,1.5,0.3c0.4,0.2,0.7,0.5,0.9,0.9c0.2,0.4,0.3,0.8,0.3,1.3s-0.1,0.9-0.3,1.3
			c-0.2,0.4-0.5,0.7-0.9,0.9s-0.9,0.3-1.5,0.3h-1.9v-0.9h1.9c0.4,0,0.8-0.1,1-0.2c0.3-0.1,0.4-0.3,0.6-0.6c0.1-0.3,0.2-0.5,0.2-0.9
			s-0.1-0.6-0.2-0.8s-0.3-0.4-0.6-0.6c-0.3-0.1-0.6-0.2-1-0.2h-1.7v7.1h-1V39.3z"/>
		<path class="st4" d="M497.8,39.4c-0.7,0-1.3-0.2-1.8-0.5s-1-0.8-1.3-1.4c-0.3-0.6-0.5-1.3-0.5-2.2c0-0.8,0.2-1.6,0.5-2.2
			c0.3-0.6,0.7-1.1,1.3-1.4c0.5-0.3,1.1-0.5,1.8-0.5c0.4,0,0.8,0.1,1.1,0.2c0.4,0.1,0.7,0.3,1,0.5c0.3,0.2,0.5,0.5,0.7,0.8
			s0.3,0.7,0.4,1.1h-1c-0.1-0.3-0.2-0.5-0.3-0.7c-0.1-0.2-0.3-0.4-0.5-0.5s-0.4-0.3-0.7-0.3c-0.2-0.1-0.5-0.1-0.8-0.1
			c-0.5,0-0.9,0.1-1.3,0.4s-0.7,0.6-0.9,1.1s-0.3,1-0.3,1.7s0.1,1.3,0.3,1.7s0.5,0.8,0.9,1.1c0.4,0.2,0.8,0.4,1.3,0.4
			c0.3,0,0.5,0,0.8-0.1c0.2-0.1,0.5-0.2,0.7-0.3s0.4-0.3,0.5-0.5s0.2-0.5,0.3-0.7h1c-0.1,0.4-0.2,0.8-0.4,1.1
			c-0.2,0.3-0.4,0.6-0.7,0.8c-0.3,0.2-0.6,0.4-1,0.5C498.6,39.4,498.2,39.4,497.8,39.4z"/>
		<path class="st4" d="M501.9,39.3l2.9-8h1.2l2.9,8h-1.1l-1.7-4.7c-0.1-0.3-0.2-0.7-0.4-1.1s-0.3-1-0.5-1.7h0.2
			c-0.2,0.7-0.4,1.3-0.5,1.7s-0.3,0.8-0.4,1.1l-1.6,4.7H501.9z M503.4,37.1v-0.9h4.1v0.9H503.4z"/>
		<path class="st4" d="M509.8,40.8c0.3-0.7,0.6-1.3,0.8-1.8s0.3-1.1,0.4-1.5c0.1-0.5,0.1-1,0.1-1.4c0-0.5-0.1-1.1-0.2-1.7
			s-0.3-1.2-0.5-1.8s-0.4-1.2-0.7-1.8h0.9c0.3,0.4,0.5,1,0.7,1.5c0.2,0.6,0.4,1.2,0.5,1.9s0.2,1.3,0.2,1.8c0,0.8-0.1,1.6-0.4,2.4
			c-0.2,0.8-0.6,1.6-1,2.4C510.6,40.8,509.8,40.8,509.8,40.8z"/>
	</g>
</g>
<line id="minor-axis" class="st6" x1="224" y1="12" x2="292" y2="216"/>
<g>
	<g class="st3">
		<path class="st4" d="M261,229v-8h1.5l2,5c0,0.1,0.1,0.3,0.2,0.4c0.1,0.2,0.1,0.4,0.2,0.6s0.1,0.4,0.2,0.6c0.1,0.2,0.1,0.4,0.2,0.6
			h-0.2c0-0.2,0.1-0.3,0.2-0.6s0.1-0.4,0.2-0.6c0.1-0.2,0.1-0.4,0.2-0.6c0.1-0.2,0.1-0.3,0.2-0.5l1.9-5h1.5v8h-1v-4.6
			c0-0.2,0-0.4,0-0.6c0-0.2,0-0.4,0-0.7c0-0.2,0-0.5,0-0.7s0-0.5,0-0.7h0.1c-0.1,0.2-0.2,0.5-0.2,0.8s-0.2,0.5-0.2,0.7
			c-0.1,0.2-0.2,0.5-0.2,0.7s-0.1,0.4-0.2,0.5l-1.8,4.6h-0.9l-1.8-4.6c-0.1-0.1-0.1-0.3-0.2-0.5s-0.1-0.4-0.2-0.6
			c-0.1-0.2-0.2-0.5-0.2-0.7s-0.2-0.5-0.3-0.8h0.1c0,0.2,0,0.4,0,0.6c0,0.2,0,0.5,0,0.7s0,0.5,0,0.7s0,0.4,0,0.6v4.6H261V229z"/>
		<path class="st4" d="M271.3,222c-0.2,0-0.3-0.1-0.5-0.2c-0.1-0.1-0.2-0.3-0.2-0.5s0.1-0.3,0.2-0.5c0.1-0.1,0.3-0.2,0.5-0.2
			s0.3,0.1,0.5,0.2c0.1,0.1,0.2,0.3,0.2,0.5s-0.1,0.3-0.2,0.5S271.5,222,271.3,222z M270.8,229v-6h1v6H270.8z"/>
		<path class="st4" d="M274.4,225.4v3.6h-1v-6h0.9v1.5h-0.1c0.2-0.6,0.4-0.9,0.8-1.2c0.3-0.2,0.7-0.3,1.2-0.3c0.4,0,0.8,0.1,1.1,0.2
			c0.3,0.2,0.5,0.4,0.7,0.8s0.3,0.8,0.3,1.3v3.8h-1v-3.7c0-0.5-0.1-0.8-0.4-1.1c-0.2-0.3-0.6-0.4-1-0.4c-0.3,0-0.5,0.1-0.8,0.2
			c-0.2,0.1-0.4,0.3-0.5,0.5S274.4,225.1,274.4,225.4z"/>
		<path class="st4" d="M282.4,229.1c-0.5,0-1-0.1-1.4-0.4s-0.7-0.6-1-1.1s-0.3-1-0.3-1.6s0.1-1.2,0.3-1.6c0.2-0.5,0.5-0.8,1-1.1
			s0.9-0.4,1.4-0.4s1,0.1,1.4,0.4c0.4,0.3,0.7,0.6,1,1.1c0.2,0.5,0.3,1,0.3,1.6s-0.1,1.2-0.3,1.6s-0.5,0.8-1,1.1
			C283.4,229,282.9,229.1,282.4,229.1z M282.4,228.3c0.4,0,0.7-0.1,1-0.3s0.5-0.5,0.6-0.8s0.2-0.7,0.2-1.1c0-0.4-0.1-0.8-0.2-1.1
			s-0.3-0.6-0.6-0.8c-0.3-0.2-0.6-0.3-1-0.3s-0.7,0.1-1,0.3s-0.4,0.5-0.6,0.8c-0.1,0.3-0.2,0.7-0.2,1.1c0,0.4,0.1,0.8,0.2,1.1
			s0.3,0.6,0.6,0.8S282,228.3,282.4,228.3z"/>
		<path class="st4" d="M286.5,229v-6h0.9v0.9h0.1c0.1-0.3,0.3-0.5,0.6-0.7c0.3-0.2,0.6-0.3,1-0.3c0.1,0,0.2,0,0.3,0
			c0.1,0,0.2,0,0.2,0v1c0,0-0.1,0-0.2,0s-0.2,0-0.4,0c-0.3,0-0.5,0.1-0.8,0.2c-0.2,0.1-0.4,0.3-0.5,0.5s-0.2,0.5-0.2,0.7v3.8
			L286.5,229L286.5,229z"/>
		<path class="st4" d="M295.5,229.1c-0.4,0-0.7-0.1-1-0.2c-0.3-0.1-0.6-0.4-0.7-0.6c-0.2-0.3-0.3-0.6-0.3-1c0-0.3,0.1-0.6,0.2-0.8
			s0.3-0.4,0.5-0.5s0.5-0.2,0.8-0.3s0.6-0.1,0.8-0.1c0.4,0,0.7-0.1,0.9-0.1c0.2,0,0.4-0.1,0.5-0.1c0.1-0.1,0.2-0.2,0.2-0.3l0,0
			c0-0.3,0-0.5-0.1-0.6c-0.1-0.2-0.2-0.3-0.4-0.4c-0.2-0.1-0.4-0.1-0.7-0.1c-0.3,0-0.5,0-0.7,0.1s-0.4,0.2-0.5,0.3s-0.2,0.3-0.3,0.4
			l-0.9-0.3c0.2-0.4,0.4-0.7,0.6-0.9c0.3-0.2,0.5-0.4,0.9-0.4s0.6-0.1,0.9-0.1c0.2,0,0.4,0,0.7,0.1c0.3,0,0.5,0.1,0.7,0.3
			c0.2,0.1,0.4,0.4,0.6,0.6c0.2,0.3,0.2,0.7,0.2,1.1v4h-1v-0.8h-0.1c-0.1,0.1-0.2,0.3-0.3,0.4s-0.3,0.3-0.6,0.4
			S295.8,229.1,295.5,229.1z M295.6,228.3c0.4,0,0.7-0.1,0.9-0.2s0.4-0.3,0.6-0.5s0.2-0.5,0.2-0.7V226c0,0-0.1,0.1-0.3,0.1
			c-0.1,0-0.3,0.1-0.5,0.1s-0.3,0.1-0.5,0.1s-0.3,0-0.4,0c-0.2,0-0.5,0.1-0.7,0.1c-0.2,0.1-0.4,0.2-0.5,0.3s-0.2,0.3-0.2,0.5
			s0.1,0.4,0.2,0.5s0.3,0.2,0.4,0.3C295.2,228.2,295.4,228.3,295.6,228.3z"/>
		<path class="st4" d="M299.5,229l2.4-3.5v0.7l-2.2-3.3h1.1l0.7,1.2c0.2,0.3,0.4,0.6,0.5,0.8c0.1,0.3,0.3,0.5,0.4,0.8h-0.5
			c0.2-0.2,0.3-0.5,0.4-0.8s0.3-0.5,0.5-0.8l0.8-1.2h1.1l-2.2,3.3v-0.7l2.3,3.4h-1.1l-0.9-1.3c-0.2-0.3-0.4-0.6-0.5-0.8
			c-0.1-0.3-0.3-0.5-0.4-0.7h0.5c-0.1,0.2-0.3,0.5-0.4,0.7c-0.1,0.3-0.3,0.5-0.5,0.8l-0.9,1.3h-1.1L299.5,229L299.5,229z"/>
		<path class="st4" d="M306.4,222c-0.2,0-0.3-0.1-0.5-0.2s-0.2-0.3-0.2-0.5s0.1-0.3,0.2-0.5c0.1-0.1,0.3-0.2,0.5-0.2
			s0.3,0.1,0.5,0.2c0.1,0.1,0.2,0.3,0.2,0.5s-0.1,0.3-0.2,0.5C306.8,221.9,306.6,222,306.4,222z M306,229v-6h1v6H306z"/>
		<path class="st4" d="M310.7,229.1c-0.4,0-0.8-0.1-1.1-0.2c-0.3-0.1-0.6-0.3-0.8-0.5c-0.2-0.2-0.3-0.5-0.4-0.9l0.9-0.2
			c0.1,0.3,0.2,0.6,0.5,0.7c0.2,0.2,0.5,0.2,0.9,0.2s0.8-0.1,1-0.3s0.4-0.4,0.4-0.6c0-0.2-0.1-0.4-0.2-0.5s-0.4-0.2-0.7-0.3l-1-0.2
			c-0.5-0.1-0.9-0.3-1.2-0.6c-0.3-0.3-0.4-0.6-0.4-1c0-0.3,0.1-0.6,0.3-0.9c0.2-0.3,0.5-0.5,0.8-0.6s0.7-0.2,1.1-0.2
			s0.8,0.1,1.1,0.2c0.3,0.1,0.5,0.3,0.7,0.5s0.3,0.5,0.4,0.8l-0.9,0.2c-0.1-0.2-0.2-0.4-0.4-0.6s-0.5-0.3-0.9-0.3s-0.7,0.1-0.9,0.2
			c-0.2,0.2-0.4,0.4-0.4,0.6c0,0.2,0.1,0.4,0.2,0.5c0.2,0.1,0.4,0.2,0.8,0.3l0.9,0.2c0.5,0.1,0.9,0.3,1.2,0.6c0.3,0.3,0.4,0.6,0.4,1
			s-0.1,0.7-0.3,0.9c-0.2,0.3-0.5,0.5-0.8,0.6C311.5,229,311.1,229.1,310.7,229.1z"/>
		<path class="st4" d="M317.8,225.7c0-0.6,0.1-1.2,0.2-1.8s0.3-1.3,0.5-1.8c0.2-0.6,0.4-1.1,0.7-1.5h0.9c-0.3,0.6-0.5,1.1-0.7,1.8
			c-0.2,0.6-0.4,1.2-0.5,1.8s-0.2,1.2-0.2,1.7s0,1,0.1,1.4s0.2,1,0.4,1.5c0.2,0.5,0.5,1.1,0.8,1.8h-0.9c-0.5-0.8-0.8-1.6-1-2.4
			C318,227.3,317.8,226.5,317.8,225.7z"/>
		<path class="st4" d="M321.7,229v-8h2.7c0.6,0,1.1,0.1,1.5,0.3s0.7,0.5,0.9,0.9s0.3,0.8,0.3,1.3s-0.1,0.9-0.3,1.3s-0.5,0.7-0.9,0.9
			s-0.9,0.3-1.5,0.3h-1.9v-0.9h1.9c0.4,0,0.8-0.1,1-0.2c0.3-0.1,0.4-0.3,0.6-0.6c0.1-0.3,0.2-0.5,0.2-0.9s-0.1-0.6-0.2-0.8
			s-0.3-0.4-0.6-0.6c-0.3-0.1-0.6-0.2-1-0.2h-1.7v7.1L321.7,229L321.7,229z"/>
		<path class="st4" d="M331.9,229.1c-0.7,0-1.3-0.2-1.8-0.5s-1-0.8-1.3-1.4s-0.5-1.3-0.5-2.2c0-0.8,0.2-1.6,0.5-2.2s0.7-1.1,1.3-1.4
			c0.5-0.3,1.1-0.5,1.8-0.5c0.4,0,0.8,0.1,1.1,0.2c0.4,0.1,0.7,0.3,1,0.5s0.5,0.5,0.7,0.8s0.3,0.7,0.4,1.1h-1
			c-0.1-0.3-0.2-0.5-0.3-0.7c-0.1-0.2-0.3-0.4-0.5-0.5s-0.4-0.3-0.7-0.3s-0.5-0.1-0.8-0.1c-0.5,0-0.9,0.1-1.3,0.4s-0.7,0.6-0.9,1.1
			c-0.2,0.5-0.3,1-0.3,1.7s0.1,1.3,0.3,1.7c0.2,0.5,0.5,0.8,0.9,1.1c0.4,0.2,0.8,0.4,1.3,0.4c0.3,0,0.5,0,0.8-0.1s0.5-0.2,0.7-0.3
			s0.4-0.3,0.5-0.5s0.2-0.5,0.3-0.7h1c-0.1,0.4-0.2,0.8-0.4,1.1s-0.4,0.6-0.7,0.8c-0.3,0.2-0.6,0.4-1,0.5
			C332.7,229,332.3,229.1,331.9,229.1z"/>
		<path class="st4" d="M336,229l2.9-8h1.2l2.9,8h-1l-1.7-4.7c-0.1-0.3-0.2-0.7-0.4-1.1s-0.3-1-0.5-1.7h0.2c-0.2,0.7-0.4,1.3-0.5,1.7
			s-0.3,0.8-0.4,1.1l-1.6,4.7H336z M337.5,226.8v-0.9h4.1v0.9H337.5z"/>
		<path class="st4" d="M343.9,230.5c0.3-0.7,0.6-1.3,0.8-1.8s0.3-1.1,0.4-1.5c0.1-0.5,0.1-1,0.1-1.4c0-0.5-0.1-1.1-0.2-1.7
			s-0.3-1.2-0.5-1.8s-0.4-1.2-0.7-1.8h0.9c0.3,0.4,0.5,1,0.7,1.5c0.2,0.6,0.4,1.2,0.5,1.9s0.2,1.3,0.2,1.8c0,0.8-0.1,1.6-0.4,2.4
			c-0.2,0.8-0.6,1.6-1,2.4L343.9,230.5L343.9,230.5z"/>
	</g>
</g>
<circle class="st7" cx="237.5" cy="52" r="4"/>
<circle class="st7" cx="265" cy="135" r="4"/>
<circle class="st4" cx="258" cy="115" r="4"/>
<g>
	<g>
		<line class="st8" x1="262" y1="115" x2="263.2" y2="115.9"/>
		<line class="st8" x1="264.9" y1="117" x2="313.8" y2="151.1"/>
		<line class="st8" x1="314.6" y1="151.6" x2="315.9" y2="152.5"/>
	</g>
</g>
<g>
	<g class="st3">
		<path class="st4" d="M321.8,161.1c-0.7,0-1.3-0.2-1.8-0.5s-1-0.8-1.3-1.4c-0.3-0.6-0.5-1.3-0.5-2.2c0-0.8,0.2-1.6,0.5-2.2
			c0.3-0.6,0.7-1.1,1.3-1.4c0.5-0.3,1.1-0.5,1.8-0.5c0.4,0,0.8,0.1,1.1,0.2c0.4,0.1,0.7,0.3,1,0.5s0.5,0.5,0.7,0.8s0.3,0.7,0.4,1.1
			h-1c-0.1-0.3-0.2-0.5-0.3-0.7s-0.3-0.4-0.5-0.5s-0.4-0.3-0.7-0.3c-0.2-0.1-0.5-0.1-0.8-0.1c-0.5,0-0.9,0.1-1.3,0.4
			s-0.7,0.6-0.9,1.1s-0.3,1-0.3,1.7s0.1,1.3,0.3,1.7c0.2,0.5,0.5,0.8,0.9,1.1c0.4,0.2,0.8,0.4,1.3,0.4c0.3,0,0.5,0,0.8-0.1
			c0.2-0.1,0.5-0.2,0.7-0.3s0.4-0.3,0.5-0.5s0.2-0.5,0.3-0.7h1c-0.1,0.4-0.2,0.8-0.4,1.1s-0.4,0.6-0.7,0.8c-0.3,0.2-0.6,0.4-1,0.5
			C322.6,161,322.2,161.1,321.8,161.1z"/>
		<path class="st4" d="M329,161.1c-0.6,0-1.1-0.1-1.5-0.4c-0.4-0.3-0.7-0.6-1-1.1c-0.2-0.5-0.3-1-0.3-1.6s0.1-1.2,0.3-1.6
			c0.2-0.5,0.5-0.8,0.9-1.1s0.9-0.4,1.4-0.4c0.3,0,0.6,0.1,0.9,0.2c0.3,0.1,0.6,0.3,0.8,0.5c0.3,0.2,0.5,0.5,0.6,0.9
			c0.2,0.4,0.2,0.9,0.2,1.4v0.4h-4.7v-0.8h4.1l-0.5,0.3c0-0.4-0.1-0.7-0.2-1s-0.3-0.5-0.6-0.7c-0.2-0.2-0.5-0.3-0.9-0.3
			s-0.7,0.1-0.9,0.3c-0.3,0.2-0.5,0.4-0.6,0.7s-0.2,0.6-0.2,0.9v0.5c0,0.4,0.1,0.8,0.2,1.1c0.2,0.3,0.4,0.5,0.6,0.7s0.6,0.2,1,0.2
			c0.2,0,0.5,0,0.6-0.1c0.2-0.1,0.4-0.2,0.5-0.3s0.2-0.3,0.3-0.5l0.9,0.3c-0.1,0.3-0.3,0.6-0.5,0.8s-0.5,0.4-0.8,0.5
			C329.8,161.1,329.4,161.1,329,161.1z"/>
		<path class="st4" d="M333.9,157.4v3.6h-1v-6h0.9v1.5h-0.1c0.2-0.6,0.4-0.9,0.8-1.2c0.3-0.2,0.7-0.3,1.2-0.3c0.4,0,0.8,0.1,1.1,0.2
			c0.3,0.2,0.5,0.4,0.7,0.8c0.2,0.3,0.3,0.8,0.3,1.3v3.8h-1v-3.7c0-0.5-0.1-0.8-0.4-1.1c-0.2-0.3-0.6-0.4-1-0.4
			c-0.3,0-0.5,0.1-0.8,0.2c-0.2,0.1-0.4,0.3-0.5,0.5S333.9,157.1,333.9,157.4z"/>
		<path class="st4" d="M341.8,155v0.8h-3.1V155H341.8z M339.6,153.6h1v5.9c0,0.3,0.1,0.5,0.2,0.6s0.3,0.2,0.5,0.2c0.1,0,0.1,0,0.2,0
			s0.2,0,0.3,0l0.2,0.8c-0.1,0-0.2,0.1-0.3,0.1c-0.1,0-0.3,0-0.4,0c-0.5,0-0.9-0.1-1.2-0.4c-0.3-0.3-0.4-0.7-0.4-1.1v-6.1H339.6z"/>
		<path class="st4" d="M343,161v-6h0.9v0.9h0.1c0.1-0.3,0.3-0.5,0.6-0.7c0.3-0.2,0.6-0.3,1-0.3c0.1,0,0.2,0,0.3,0c0.1,0,0.2,0,0.2,0
			v1c0,0-0.1,0-0.2,0s-0.2,0-0.4,0c-0.3,0-0.5,0.1-0.8,0.2s-0.4,0.3-0.5,0.5s-0.2,0.5-0.2,0.7v3.8L343,161L343,161z"/>
		<path class="st4" d="M349.6,161.1c-0.5,0-1-0.1-1.4-0.4s-0.7-0.6-1-1.1c-0.2-0.5-0.3-1-0.3-1.6s0.1-1.2,0.3-1.6
			c0.2-0.5,0.5-0.8,1-1.1s0.9-0.4,1.4-0.4s1,0.1,1.4,0.4c0.4,0.3,0.7,0.6,1,1.1c0.2,0.5,0.3,1,0.3,1.6s-0.1,1.2-0.3,1.6
			c-0.2,0.5-0.5,0.8-1,1.1C350.6,161,350.1,161.1,349.6,161.1z M349.6,160.3c0.4,0,0.7-0.1,1-0.3s0.5-0.5,0.6-0.8s0.2-0.7,0.2-1.1
			c0-0.4-0.1-0.8-0.2-1.1s-0.3-0.6-0.6-0.8c-0.3-0.2-0.6-0.3-1-0.3s-0.7,0.1-1,0.3s-0.4,0.5-0.6,0.8c-0.1,0.3-0.2,0.7-0.2,1.1
			c0,0.4,0.1,0.8,0.2,1.1s0.3,0.6,0.6,0.8C348.9,160.2,349.2,160.3,349.6,160.3z"/>
		<path class="st4" d="M354.2,154c-0.2,0-0.3-0.1-0.5-0.2c-0.1-0.1-0.2-0.3-0.2-0.5s0.1-0.3,0.2-0.5c0.1-0.1,0.3-0.2,0.5-0.2
			s0.3,0.1,0.5,0.2c0.1,0.1,0.2,0.3,0.2,0.5s-0.1,0.3-0.2,0.5C354.6,153.9,354.4,154,354.2,154z M353.8,161v-6h1v6H353.8z"/>
		<path class="st4" d="M358.7,161.1c-0.5,0-0.9-0.1-1.3-0.4c-0.4-0.3-0.7-0.6-0.9-1.1s-0.3-1-0.3-1.7c0-0.6,0.1-1.2,0.3-1.6
			s0.5-0.8,0.9-1.1s0.8-0.4,1.3-0.4c0.4,0,0.7,0.1,0.9,0.2c0.2,0.1,0.4,0.3,0.5,0.4c0.1,0.2,0.2,0.3,0.3,0.4h0.1v-3h1v8h-0.9v-0.9
			h-0.1c-0.1,0.1-0.2,0.2-0.3,0.4c-0.1,0.2-0.3,0.3-0.5,0.4C359.4,161.1,359.1,161.1,358.7,161.1z M358.8,160.3
			c0.4,0,0.7-0.1,0.9-0.3c0.3-0.2,0.4-0.5,0.6-0.8c0.1-0.3,0.2-0.7,0.2-1.2s-0.1-0.8-0.2-1.2s-0.3-0.6-0.6-0.8
			c-0.3-0.2-0.6-0.3-0.9-0.3c-0.4,0-0.7,0.1-0.9,0.3c-0.3,0.2-0.4,0.5-0.6,0.8c-0.1,0.3-0.2,0.7-0.2,1.1c0,0.4,0.1,0.8,0.2,1.1
			s0.3,0.6,0.6,0.8C358.1,160.2,358.4,160.3,358.8,160.3z"/>
	</g>
</g>
<circle class="st9" cx="251" cy="93" r="7"/>
<circle class="st10" cx="251" cy="93" r="2.5"/>
<g>
	<line class="st11" x1="241.2" y1="93" x2="239.7" y2="93"/>
	<line class="st11" x1="237.7" y1="93.1" x2="143.3" y2="94.7"/>
	<line class="st11" x1="142.3" y1="94.7" x2="140.8" y2="94.7"/>
</g>
<g>
	<g class="st3">
		<path class="st4" d="M72.8,97c-0.7,0-1.3-0.2-1.9-0.5c-0.5-0.3-1-0.8-1.3-1.4s-0.5-1.3-0.5-2.2c0-0.8,0.2-1.6,0.5-2.2
			s0.7-1.1,1.2-1.4s1.1-0.5,1.8-0.5c0.4,0,0.8,0.1,1.2,0.2c0.4,0.1,0.7,0.3,1,0.5s0.5,0.5,0.7,0.8s0.3,0.7,0.4,1.1H75
			c-0.1-0.3-0.2-0.5-0.3-0.7s-0.3-0.4-0.5-0.5s-0.4-0.3-0.6-0.3s-0.5-0.1-0.8-0.1c-0.5,0-0.9,0.1-1.3,0.4c-0.4,0.2-0.7,0.6-0.9,1.1
			s-0.3,1-0.3,1.7s0.1,1.3,0.3,1.7c0.2,0.5,0.5,0.8,0.9,1.1s0.8,0.4,1.3,0.4s0.8-0.1,1.2-0.3s0.6-0.5,0.8-0.8
			c0.2-0.4,0.3-0.8,0.3-1.2l0.3,0.1H73v-0.9h3.1V94c0,0.7-0.1,1.2-0.4,1.7s-0.7,0.9-1.2,1.1C74,96.9,73.4,97,72.8,97z"/>
		<path class="st4" d="M77.6,96.9v-6h0.9v0.9h0.1c0.1-0.3,0.3-0.5,0.6-0.7c0.3-0.2,0.6-0.3,1-0.3c0.1,0,0.2,0,0.3,0
			c0.1,0,0.2,0,0.2,0v1c0,0-0.1,0-0.2,0s-0.2,0-0.4,0c-0.3,0-0.5,0.1-0.8,0.2c-0.2,0.1-0.4,0.3-0.5,0.5s-0.2,0.5-0.2,0.7V97
			L77.6,96.9L77.6,96.9z"/>
		<path class="st4" d="M83.4,97.1c-0.4,0-0.7-0.1-1-0.2s-0.6-0.4-0.7-0.6c-0.2-0.3-0.3-0.6-0.3-1c0-0.3,0.1-0.6,0.2-0.8
			s0.3-0.4,0.5-0.5s0.5-0.2,0.8-0.3s0.6-0.1,0.8-0.1c0.4,0,0.6-0.1,0.9-0.1c0.2,0,0.4-0.1,0.5-0.1c0.1-0.1,0.2-0.2,0.2-0.3l0,0
			c0-0.3,0-0.5-0.1-0.6s-0.2-0.3-0.4-0.4S84.4,92,84.1,92s-0.5,0-0.7,0.1s-0.4,0.2-0.5,0.3c-0.1,0.1-0.2,0.3-0.3,0.4l-0.9-0.3
			c0.2-0.4,0.4-0.7,0.6-0.9s0.5-0.4,0.9-0.4s0.6-0.1,0.9-0.1c0.2,0,0.4,0,0.7,0.1c0.3,0,0.5,0.1,0.7,0.3c0.2,0.1,0.4,0.4,0.6,0.6
			c0.2,0.3,0.2,0.7,0.2,1.1v4h-1v-0.8h-0.1c-0.1,0.1-0.2,0.3-0.3,0.4s-0.3,0.3-0.6,0.4S83.8,97.1,83.4,97.1z M83.6,96.2
			c0.4,0,0.7-0.1,0.9-0.2s0.4-0.3,0.6-0.5s0.2-0.5,0.2-0.7V94c0,0-0.1,0.1-0.3,0.1c-0.1,0-0.3,0.1-0.5,0.1s-0.3,0.1-0.5,0.1
			s-0.3,0-0.4,0c-0.2,0-0.5,0.1-0.7,0.1c-0.2,0.1-0.4,0.2-0.5,0.3c-0.1,0.1-0.2,0.3-0.2,0.5s0.1,0.4,0.2,0.5s0.3,0.2,0.4,0.3
			C83.2,96.2,83.4,96.2,83.6,96.2z"/>
		<path class="st4" d="M90,97.1c-0.4,0-0.8-0.1-1.1-0.2c-0.3-0.1-0.6-0.3-0.8-0.5s-0.3-0.5-0.4-0.9l0.9-0.2c0.1,0.3,0.2,0.6,0.5,0.7
			c0.2,0.2,0.5,0.2,0.9,0.2s0.8-0.1,1-0.3c0.2-0.2,0.4-0.4,0.4-0.6s-0.1-0.4-0.2-0.5s-0.4-0.2-0.7-0.3l-1-0.2
			c-0.5-0.1-0.9-0.3-1.2-0.6s-0.4-0.6-0.4-1c0-0.3,0.1-0.6,0.3-0.9c0.2-0.3,0.5-0.5,0.8-0.6s0.7-0.2,1.1-0.2s0.8,0.1,1,0.2
			c0.3,0.1,0.5,0.3,0.7,0.5s0.3,0.5,0.4,0.8l-0.9,0.2c-0.1-0.2-0.2-0.4-0.4-0.6c-0.2-0.2-0.5-0.3-0.9-0.3s-0.7,0.1-0.9,0.2
			c-0.2,0.2-0.4,0.4-0.4,0.6s0.1,0.4,0.2,0.5c0.2,0.1,0.4,0.2,0.8,0.3l0.9,0.2c0.5,0.1,0.9,0.3,1.2,0.6s0.4,0.6,0.4,1
			s-0.1,0.7-0.3,0.9c-0.2,0.3-0.5,0.5-0.8,0.6C90.9,97,90.4,97.1,90,97.1z"/>
		<path class="st4" d="M93.7,99.2V91h0.9v1h0.1c0.1-0.1,0.2-0.2,0.3-0.4s0.3-0.3,0.5-0.4S96,91,96.4,91c0.5,0,0.9,0.1,1.3,0.4
			s0.7,0.6,0.9,1.1c0.2,0.5,0.3,1,0.3,1.6s-0.1,1.2-0.3,1.7s-0.5,0.8-0.9,1.1c-0.4,0.3-0.8,0.4-1.3,0.4c-0.4,0-0.7-0.1-0.9-0.2
			s-0.4-0.3-0.5-0.4c-0.1-0.2-0.2-0.3-0.3-0.4h-0.1v3.2h-0.9V99.2z M96.4,96.2c0.4,0,0.7-0.1,0.9-0.3c0.3-0.2,0.4-0.5,0.6-0.8
			c0.1-0.3,0.2-0.7,0.2-1.1s-0.1-0.8-0.2-1.1s-0.3-0.6-0.6-0.8c-0.3-0.2-0.6-0.3-0.9-0.3c-0.4,0-0.7,0.1-0.9,0.3
			c-0.3,0.2-0.4,0.4-0.6,0.8c-0.1,0.3-0.2,0.7-0.2,1.2s0.1,0.8,0.2,1.2c0.1,0.3,0.3,0.6,0.6,0.8C95.7,96.1,96,96.2,96.4,96.2z"/>
		<path class="st4" d="M106,97.1c-0.5,0-1-0.1-1.4-0.4s-0.7-0.6-1-1.1s-0.3-1-0.3-1.6s0.1-1.2,0.3-1.6c0.2-0.5,0.5-0.8,1-1.1
			c0.4-0.3,0.9-0.4,1.4-0.4c0.3,0,0.6,0,0.8,0.1c0.3,0.1,0.5,0.2,0.7,0.3c0.2,0.1,0.4,0.3,0.6,0.5s0.3,0.4,0.4,0.7l-0.9,0.3
			c0-0.2-0.1-0.3-0.2-0.4s-0.2-0.2-0.3-0.3c-0.1-0.1-0.3-0.2-0.4-0.2s-0.3-0.1-0.5-0.1c-0.4,0-0.7,0.1-1,0.3
			c-0.3,0.2-0.4,0.5-0.6,0.8c-0.1,0.3-0.2,0.7-0.2,1.1s0.1,0.8,0.2,1.1c0.1,0.3,0.3,0.6,0.6,0.8c0.3,0.2,0.6,0.3,1,0.3
			c0.2,0,0.4,0,0.6-0.1s0.3-0.1,0.4-0.2s0.2-0.2,0.3-0.4s0.2-0.3,0.2-0.4l0.9,0.3c-0.1,0.3-0.2,0.5-0.4,0.7
			c-0.2,0.2-0.3,0.4-0.6,0.5s-0.5,0.3-0.7,0.3S106.3,97.1,106,97.1z"/>
		<path class="st4" d="M112.4,97.1c-0.6,0-1.1-0.1-1.5-0.4s-0.7-0.6-1-1.1c-0.2-0.5-0.3-1-0.3-1.6s0.1-1.2,0.3-1.6
			c0.2-0.5,0.5-0.8,0.9-1.1c0.4-0.3,0.9-0.4,1.4-0.4c0.3,0,0.6,0.1,0.9,0.2s0.6,0.3,0.8,0.5c0.3,0.2,0.5,0.5,0.6,0.9
			c0.2,0.4,0.2,0.9,0.2,1.4v0.4H110v-0.8h4.1l-0.5,0.3c0-0.4-0.1-0.7-0.2-1s-0.3-0.5-0.6-0.7s-0.5-0.3-0.9-0.3s-0.7,0.1-0.9,0.3
			c-0.3,0.2-0.5,0.4-0.6,0.7c-0.1,0.3-0.2,0.6-0.2,0.9v0.5c0,0.4,0.1,0.8,0.2,1.1s0.4,0.5,0.6,0.7c0.3,0.2,0.6,0.2,1,0.2
			c0.2,0,0.5,0,0.6-0.1c0.2-0.1,0.4-0.2,0.5-0.3s0.2-0.3,0.3-0.5l0.9,0.3c-0.1,0.3-0.3,0.6-0.5,0.8s-0.5,0.4-0.8,0.5
			C113.2,97,112.8,97.1,112.4,97.1z"/>
		<path class="st4" d="M117.2,93.3v3.6h-1v-6h0.9v1.5H117c0.2-0.6,0.4-0.9,0.8-1.2c0.3-0.2,0.7-0.3,1.2-0.3c0.4,0,0.8,0.1,1.1,0.2
			c0.3,0.2,0.5,0.4,0.7,0.8c0.2,0.3,0.3,0.8,0.3,1.3V97h-1v-3.7c0-0.5-0.1-0.8-0.4-1.1c-0.2-0.3-0.6-0.4-1-0.4
			c-0.3,0-0.5,0.1-0.8,0.2c-0.2,0.1-0.4,0.3-0.5,0.5C117.3,92.7,117.2,93,117.2,93.3z"/>
		<path class="st4" d="M125.1,90.9v0.8H122v-0.8H125.1z M122.9,89.5h1v5.9c0,0.3,0.1,0.5,0.2,0.6s0.3,0.2,0.5,0.2c0.1,0,0.1,0,0.2,0
			s0.2,0,0.3,0l0.2,0.8c-0.1,0-0.2,0.1-0.3,0.1c-0.1,0-0.3,0-0.4,0c-0.5,0-0.9-0.1-1.2-0.4c-0.3-0.3-0.4-0.7-0.4-1.1L122.9,89.5
			L122.9,89.5z"/>
		<path class="st4" d="M128.9,97.1c-0.6,0-1.1-0.1-1.5-0.4s-0.7-0.6-1-1.1c-0.2-0.5-0.3-1-0.3-1.6s0.1-1.2,0.3-1.6
			c0.2-0.5,0.5-0.8,0.9-1.1c0.4-0.3,0.9-0.4,1.4-0.4c0.3,0,0.6,0.1,0.9,0.2c0.3,0.1,0.6,0.3,0.8,0.5c0.3,0.2,0.5,0.5,0.6,0.9
			c0.2,0.4,0.2,0.9,0.2,1.4v0.4h-4.7v-0.8h4.1l-0.5,0.3c0-0.4-0.1-0.7-0.2-1c-0.1-0.3-0.3-0.5-0.6-0.7s-0.5-0.3-0.9-0.3
			s-0.7,0.1-0.9,0.3c-0.3,0.2-0.5,0.4-0.6,0.7c-0.1,0.3-0.2,0.6-0.2,0.9v0.5c0,0.4,0.1,0.8,0.2,1.1s0.4,0.5,0.6,0.7
			c0.3,0.2,0.6,0.2,1,0.2c0.2,0,0.5,0,0.6-0.1c0.2-0.1,0.4-0.2,0.5-0.3s0.2-0.3,0.3-0.5l0.9,0.3c-0.1,0.3-0.3,0.6-0.5,0.8
			s-0.5,0.4-0.8,0.5C129.7,97,129.3,97.1,128.9,97.1z"/>
		<path class="st4" d="M132.8,96.9v-6h0.9v0.9h0.1c0.1-0.3,0.3-0.5,0.6-0.7s0.6-0.3,1-0.3c0.1,0,0.2,0,0.3,0s0.2,0,0.2,0v1
			c0,0-0.1,0-0.2,0s-0.2,0-0.4,0c-0.3,0-0.5,0.1-0.8,0.2c-0.2,0.1-0.4,0.3-0.5,0.5s-0.2,0.5-0.2,0.7V97L132.8,96.9L132.8,96.9z"/>
	</g>
</g>
<line class="st12" x1="211.9" y1="32.8" x2="246.1" y2="21.4"/>
<line class="st13" x1="221.4" y1="29.6" x2="224.8" y2="39.9"/>
<line class="st13" x1="236.7" y1="24.5" x2="240.1" y2="34.7"/>
<line class="st12" x1="258.4" y1="172.2" x2="292.6" y2="160.8"/>
<line class="st13" x1="264.2" y1="157.8" x2="267.8" y2="168.8"/>
<line class="st13" x1="279.4" y1="153" x2="283.1" y2="164"/>
<g>
	<g class="st3">
		<path class="st14" d="M254.7,33.2c-0.7,0-1.3-0.2-1.9-0.5c-0.5-0.3-1-0.8-1.3-1.4S251,30,251,29.1c0-0.8,0.2-1.6,0.5-2.2
			s0.7-1.1,1.2-1.4s1.1-0.5,1.8-0.5c0.4,0,0.8,0.1,1.2,0.2c0.4,0.1,0.7,0.3,1,0.5c0.3,0.2,0.5,0.5,0.7,0.8s0.3,0.7,0.4,1.1h-1.1
			c-0.1-0.3-0.2-0.5-0.3-0.7s-0.3-0.4-0.5-0.5c-0.2-0.1-0.4-0.3-0.6-0.3s-0.5-0.1-0.8-0.1c-0.5,0-0.9,0.1-1.3,0.4
			c-0.4,0.2-0.7,0.6-0.9,1.1s-0.3,1-0.3,1.7s0.1,1.3,0.3,1.7c0.2,0.5,0.5,0.8,0.9,1.1s0.8,0.4,1.3,0.4s0.8-0.1,1.2-0.3
			s0.6-0.5,0.8-0.8c0.2-0.4,0.3-0.8,0.3-1.2l0.3,0.1h-2.4v-0.9h3.1v0.9c0,0.7-0.1,1.2-0.4,1.7c-0.3,0.5-0.7,0.9-1.2,1.1
			C255.9,33.1,255.4,33.2,254.7,33.2z"/>
		<path class="st14" d="M259.6,33.1v-6h0.9V28h0.1c0.1-0.3,0.3-0.5,0.6-0.7c0.3-0.2,0.6-0.3,1-0.3c0.1,0,0.2,0,0.3,0
			c0.1,0,0.2,0,0.2,0v1c0,0-0.1,0-0.2,0s-0.2,0-0.4,0c-0.3,0-0.5,0.1-0.8,0.2c-0.2,0.1-0.4,0.3-0.5,0.5s-0.2,0.5-0.2,0.7v3.8h-1
			V33.1z"/>
		<path class="st14" d="M264.2,26.1c-0.2,0-0.3-0.1-0.5-0.2s-0.2-0.3-0.2-0.5s0.1-0.3,0.2-0.5c0.1-0.1,0.3-0.2,0.5-0.2
			s0.3,0.1,0.5,0.2c0.1,0.1,0.2,0.3,0.2,0.5s-0.1,0.3-0.2,0.5C264.5,26,264.4,26.1,264.2,26.1z M263.7,33.1v-6h1v6H263.7z"/>
		<path class="st14" d="M266.4,35.3v-8.2h0.9v1h0.1c0.1-0.1,0.2-0.2,0.3-0.4s0.3-0.3,0.5-0.4s0.5-0.2,0.9-0.2c0.5,0,0.9,0.1,1.3,0.4
			s0.7,0.6,0.9,1.1c0.2,0.5,0.3,1,0.3,1.6s-0.1,1.2-0.3,1.7c-0.2,0.5-0.5,0.8-0.9,1.1s-0.8,0.4-1.3,0.4c-0.4,0-0.7-0.1-0.9-0.2
			c-0.2-0.1-0.4-0.3-0.5-0.4c-0.1-0.2-0.2-0.3-0.3-0.4h-0.1v3.2h-0.9V35.3z M269,32.4c0.4,0,0.7-0.1,0.9-0.3
			c0.3-0.2,0.4-0.5,0.6-0.8s0.2-0.7,0.2-1.1s-0.1-0.8-0.2-1.1c-0.1-0.3-0.3-0.6-0.6-0.8S269.3,28,269,28c-0.4,0-0.7,0.1-0.9,0.3
			c-0.2,0.2-0.4,0.4-0.6,0.8s-0.2,0.7-0.2,1.2s0.1,0.8,0.2,1.2c0.1,0.3,0.3,0.6,0.6,0.8S268.6,32.4,269,32.4z"/>
		<path class="st14" d="M273.1,35.3v-8.2h0.9v1h0.1c0.1-0.1,0.2-0.2,0.3-0.4s0.3-0.3,0.5-0.4s0.5-0.2,0.9-0.2c0.5,0,0.9,0.1,1.3,0.4
			s0.7,0.6,0.9,1.1s0.3,1,0.3,1.6s-0.1,1.2-0.3,1.7c-0.2,0.5-0.5,0.8-0.9,1.1s-0.8,0.4-1.3,0.4c-0.4,0-0.7-0.1-0.9-0.2
			c-0.2-0.1-0.4-0.3-0.5-0.4c-0.1-0.2-0.2-0.3-0.3-0.4H274v3.2h-0.9V35.3z M275.7,32.4c0.4,0,0.7-0.1,0.9-0.3s0.4-0.5,0.6-0.8
			c0.1-0.3,0.2-0.7,0.2-1.1s-0.1-0.8-0.2-1.1c-0.1-0.3-0.3-0.6-0.6-0.8c-0.3-0.2-0.6-0.3-0.9-0.3c-0.4,0-0.7,0.1-0.9,0.3
			c-0.3,0.2-0.4,0.4-0.6,0.8c-0.1,0.3-0.2,0.7-0.2,1.2s0.1,0.8,0.2,1.2c0.1,0.3,0.3,0.6,0.6,0.8C275.1,32.3,275.4,32.4,275.7,32.4z"
			/>
		<path class="st14" d="M282.4,33.2c-0.6,0-1.1-0.1-1.5-0.4c-0.4-0.3-0.7-0.6-1-1.1c-0.2-0.5-0.3-1-0.3-1.6s0.1-1.2,0.3-1.6
			c0.2-0.5,0.5-0.8,0.9-1.1c0.4-0.3,0.9-0.4,1.4-0.4c0.3,0,0.6,0.1,0.9,0.2s0.6,0.3,0.8,0.5s0.5,0.5,0.6,0.9
			c0.2,0.4,0.2,0.9,0.2,1.4v0.4H280v-0.8h4.1l-0.5,0.3c0-0.4-0.1-0.7-0.2-1s-0.3-0.5-0.6-0.7c-0.2-0.2-0.5-0.3-0.9-0.3
			s-0.7,0.1-0.9,0.3c-0.3,0.2-0.5,0.4-0.6,0.7c-0.1,0.3-0.2,0.6-0.2,0.9v0.5c0,0.4,0.1,0.8,0.2,1.1s0.4,0.5,0.6,0.7
			c0.3,0.2,0.6,0.2,1,0.2c0.2,0,0.5,0,0.6-0.1c0.2-0.1,0.4-0.2,0.5-0.3c0.1-0.1,0.2-0.3,0.3-0.5l0.9,0.3c-0.1,0.3-0.2,0.6-0.5,0.8
			c-0.2,0.2-0.5,0.4-0.8,0.5S282.8,33.2,282.4,33.2z"/>
		<path class="st14" d="M286.2,33.1v-6h0.9V28h0.1c0.1-0.3,0.3-0.5,0.6-0.7c0.3-0.2,0.6-0.3,1-0.3c0.1,0,0.2,0,0.3,0
			c0.1,0,0.2,0,0.2,0v1c0,0-0.1,0-0.2,0s-0.2,0-0.4,0c-0.3,0-0.5,0.1-0.8,0.2c-0.2,0.1-0.4,0.3-0.5,0.5s-0.2,0.5-0.2,0.7v3.8h-1
			V33.1z"/>
	</g>
</g>
<line id="minor-axis_00000082326600345661824380000010764334449935636123_" class="st15" x1="230.2" y1="51.7" x2="144.2" y2="40.2"/>
<g>
	<g class="st3">
		<path class="st4" d="M108.5,20.7l2.9-8h1.2l2.9,8h-1.1l-1.7-4.7c-0.1-0.3-0.2-0.7-0.4-1.1c-0.1-0.4-0.3-1-0.5-1.7h0.2
			c-0.2,0.7-0.4,1.3-0.5,1.7s-0.3,0.8-0.4,1.1l-1.6,4.7H108.5z M110,18.5v-0.9h4.1v0.9H110z"/>
		<path class="st4" d="M116.2,20.7l2.4-3.5v0.7l-2.2-3.3h1.1l0.7,1.2c0.2,0.3,0.4,0.6,0.5,0.8c0.1,0.3,0.3,0.5,0.4,0.8h-0.5
			c0.2-0.2,0.3-0.5,0.4-0.8s0.3-0.5,0.5-0.8l0.8-1.2h1.1l-2.3,3.3v-0.7l2.3,3.4h-1.1l-0.9-1.3c-0.2-0.3-0.4-0.6-0.5-0.8
			c-0.1-0.3-0.3-0.5-0.4-0.7h0.5c-0.1,0.2-0.3,0.5-0.4,0.7c-0.1,0.3-0.3,0.5-0.5,0.8l-0.9,1.3h-1V20.7z"/>
		<path class="st4" d="M123.2,13.7c-0.2,0-0.3-0.1-0.5-0.2s-0.2-0.3-0.2-0.5s0.1-0.3,0.2-0.5c0.1-0.1,0.3-0.2,0.5-0.2
			s0.3,0.1,0.5,0.2c0.1,0.1,0.2,0.3,0.2,0.5s-0.1,0.3-0.2,0.5S123.4,13.7,123.2,13.7z M122.7,20.7v-6h1v6H122.7z"/>
		<path class="st4" d="M127.4,20.9c-0.4,0-0.8-0.1-1.1-0.2c-0.3-0.1-0.6-0.3-0.8-0.5s-0.3-0.5-0.4-0.9l0.9-0.2
			c0.1,0.3,0.2,0.6,0.5,0.7c0.2,0.2,0.5,0.2,0.9,0.2s0.8-0.1,1-0.3c0.2-0.2,0.4-0.4,0.4-0.6s-0.1-0.4-0.2-0.5
			c-0.1-0.1-0.4-0.2-0.7-0.3l-1-0.2c-0.5-0.1-0.9-0.3-1.2-0.6s-0.4-0.6-0.4-1c0-0.3,0.1-0.6,0.3-0.9c0.2-0.3,0.5-0.5,0.8-0.6
			s0.7-0.2,1.1-0.2s0.8,0.1,1,0.2c0.3,0.1,0.5,0.3,0.7,0.5s0.3,0.5,0.4,0.8l-0.9,0.2c-0.1-0.2-0.2-0.4-0.4-0.6
			c-0.2-0.2-0.5-0.3-0.9-0.3s-0.7,0.1-0.9,0.2c-0.2,0.2-0.4,0.4-0.4,0.6s0.1,0.4,0.2,0.5c0.2,0.1,0.4,0.2,0.8,0.3l0.9,0.2
			c0.5,0.1,0.9,0.3,1.2,0.6s0.4,0.6,0.4,1s-0.1,0.7-0.3,0.9c-0.2,0.3-0.5,0.5-0.8,0.6C128.3,20.8,127.9,20.9,127.4,20.9z"/>
		<path class="st4" d="M134.6,16.9v0.9h-3.5v-0.9H134.6z"/>
		<path class="st4" d="M136.2,20.7v-6h0.9V16H137c0.1-0.3,0.2-0.6,0.4-0.8s0.4-0.4,0.6-0.5c0.2-0.1,0.5-0.2,0.7-0.2
			c0.4,0,0.8,0.1,1.1,0.4c0.3,0.3,0.4,0.6,0.5,1.1h-0.1c0.1-0.3,0.2-0.6,0.4-0.8s0.4-0.4,0.7-0.5s0.6-0.2,0.9-0.2
			c0.3,0,0.7,0.1,1,0.2s0.5,0.4,0.7,0.7s0.3,0.7,0.3,1.2v4h-1v-4c0-0.4-0.1-0.7-0.4-0.9s-0.5-0.3-0.8-0.3s-0.5,0.1-0.7,0.2
			c-0.2,0.1-0.3,0.3-0.5,0.5c-0.1,0.2-0.2,0.4-0.2,0.7v3.9h-1v-4.1c0-0.3-0.1-0.6-0.3-0.8s-0.5-0.3-0.8-0.3c-0.2,0-0.5,0.1-0.7,0.2
			c-0.2,0.1-0.4,0.3-0.5,0.5s-0.2,0.5-0.2,0.8v3.8L136.2,20.7L136.2,20.7z"/>
		<path class="st4" d="M147.5,20.9c-0.4,0-0.7-0.1-1-0.2s-0.6-0.4-0.7-0.6c-0.2-0.3-0.3-0.6-0.3-1c0-0.3,0.1-0.6,0.2-0.8
			s0.3-0.4,0.5-0.5s0.5-0.2,0.8-0.3s0.6-0.1,0.8-0.1c0.4,0,0.6-0.1,0.9-0.1c0.2,0,0.4-0.1,0.5-0.1c0.1-0.1,0.2-0.2,0.2-0.3l0,0
			c0-0.3,0-0.5-0.1-0.6s-0.2-0.3-0.4-0.4s-0.4-0.1-0.7-0.1s-0.5,0-0.7,0.1s-0.4,0.2-0.5,0.3c-0.1,0.1-0.2,0.3-0.3,0.4l-0.9-0.3
			c0.2-0.4,0.4-0.7,0.6-0.9s0.5-0.4,0.9-0.4s0.6-0.1,0.9-0.1c0.2,0,0.4,0,0.7,0.1c0.3,0,0.5,0.1,0.7,0.3c0.2,0.1,0.4,0.4,0.6,0.6
			c0.2,0.3,0.2,0.7,0.2,1.1v4h-1v-0.8h-0.1c-0.1,0.1-0.2,0.3-0.3,0.4s-0.3,0.3-0.6,0.4S147.9,20.9,147.5,20.9z M147.7,20
			c0.4,0,0.7-0.1,0.9-0.2s0.4-0.3,0.6-0.5s0.2-0.5,0.2-0.7v-0.8c0,0-0.1,0.1-0.3,0.1c-0.1,0-0.3,0.1-0.5,0.1s-0.3,0.1-0.5,0.1
			s-0.3,0-0.4,0c-0.2,0-0.5,0.1-0.7,0.1c-0.2,0.1-0.4,0.2-0.5,0.3c-0.1,0.1-0.2,0.3-0.2,0.5s0.1,0.4,0.2,0.5s0.3,0.2,0.4,0.3
			C147.3,20,147.5,20,147.7,20z"/>
		<path class="st4" d="M154.1,20.9c-0.4,0-0.8-0.1-1.1-0.2s-0.6-0.3-0.8-0.5s-0.3-0.5-0.4-0.9l0.9-0.2c0.1,0.3,0.2,0.6,0.5,0.7
			c0.2,0.2,0.5,0.2,0.9,0.2s0.8-0.1,1-0.3c0.2-0.2,0.4-0.4,0.4-0.6s-0.1-0.4-0.2-0.5c-0.1-0.1-0.4-0.2-0.7-0.3l-1-0.2
			c-0.5-0.1-0.9-0.3-1.2-0.6s-0.4-0.6-0.4-1c0-0.3,0.1-0.6,0.3-0.9c0.2-0.3,0.5-0.5,0.8-0.6s0.7-0.2,1.1-0.2c0.4,0,0.8,0.1,1,0.2
			c0.3,0.1,0.5,0.3,0.7,0.5s0.3,0.5,0.4,0.8l-0.9,0.2c-0.1-0.2-0.2-0.4-0.4-0.6c-0.2-0.2-0.5-0.3-0.9-0.3s-0.7,0.1-0.9,0.2
			c-0.2,0.2-0.4,0.4-0.4,0.6s0.1,0.4,0.2,0.5c0.2,0.1,0.4,0.2,0.8,0.3l0.9,0.2c0.5,0.1,0.9,0.3,1.2,0.6s0.4,0.6,0.4,1
			s-0.1,0.7-0.3,0.9c-0.2,0.3-0.5,0.5-0.8,0.6C155,20.8,154.6,20.9,154.1,20.9z"/>
		<path class="st4" d="M157.8,20.7v-8h1v8H157.8z M158.8,18.6v-1.2h0.2l2.6-2.6h1.2l-2.8,2.9h-0.1L158.8,18.6z M161.6,20.7l-2.3-2.9
			l0.7-0.7l2.9,3.6H161.6z"/>
		<path class="st4" d="M106.4,26.9c-0.2,0-0.3-0.1-0.5-0.2s-0.2-0.3-0.2-0.5s0.1-0.3,0.2-0.5c0.1-0.1,0.3-0.2,0.5-0.2
			s0.3,0.1,0.5,0.2c0.1,0.1,0.2,0.3,0.2,0.5s-0.1,0.3-0.2,0.5S106.6,26.9,106.4,26.9z M105.9,33.9v-6h1v6H105.9z"/>
		<path class="st4" d="M109.5,30.3v3.6h-1v-6h0.9v1.5h-0.1c0.2-0.6,0.4-0.9,0.8-1.2c0.3-0.2,0.7-0.3,1.2-0.3c0.4,0,0.8,0.1,1.1,0.2
			c0.3,0.2,0.5,0.4,0.7,0.8c0.2,0.3,0.3,0.8,0.3,1.3V34h-1v-3.7c0-0.5-0.1-0.8-0.4-1.1c-0.2-0.3-0.6-0.4-1-0.4
			c-0.3,0-0.5,0.1-0.8,0.2c-0.2,0.1-0.4,0.3-0.5,0.5S109.5,30,109.5,30.3z"/>
		<path class="st4" d="M117.4,27.9v0.8h-3.1v-0.8H117.4z M115.2,26.5h1v5.9c0,0.3,0.1,0.5,0.2,0.6s0.3,0.2,0.5,0.2
			c0.1,0,0.1,0,0.2,0s0.2,0,0.3,0l0.2,0.8c-0.1,0-0.2,0.1-0.3,0.1c-0.1,0-0.3,0-0.4,0c-0.5,0-0.9-0.1-1.2-0.4
			c-0.3-0.3-0.4-0.7-0.4-1.1L115.2,26.5L115.2,26.5z"/>
		<path class="st4" d="M121.2,34.1c-0.6,0-1.1-0.1-1.5-0.4c-0.4-0.3-0.7-0.6-1-1.1c-0.2-0.5-0.3-1-0.3-1.6s0.1-1.2,0.3-1.6
			c0.2-0.5,0.5-0.8,0.9-1.1c0.4-0.3,0.9-0.4,1.4-0.4c0.3,0,0.6,0.1,0.9,0.2s0.6,0.3,0.8,0.5c0.3,0.2,0.5,0.5,0.6,0.9
			c0.2,0.4,0.2,0.9,0.2,1.4v0.4H119v-0.8h4.1l-0.5,0.3c0-0.4-0.1-0.7-0.2-1s-0.3-0.5-0.6-0.7s-0.5-0.3-0.9-0.3s-0.7,0.1-0.9,0.3
			c-0.3,0.2-0.5,0.4-0.6,0.7c-0.1,0.3-0.2,0.6-0.2,0.9v0.5c0,0.4,0.1,0.8,0.2,1.1s0.4,0.5,0.6,0.7c0.3,0.2,0.6,0.2,1,0.2
			c0.2,0,0.5,0,0.6-0.1c0.2-0.1,0.4-0.2,0.5-0.3s0.2-0.3,0.3-0.5l0.9,0.3c-0.1,0.3-0.3,0.6-0.5,0.8s-0.5,0.4-0.8,0.5
			C122,34,121.6,34.1,121.2,34.1z"/>
		<path class="st4" d="M125.1,33.9v-6h0.9v0.9h0.1c0.1-0.3,0.3-0.5,0.6-0.7c0.3-0.2,0.6-0.3,1-0.3c0.1,0,0.2,0,0.3,0s0.2,0,0.2,0v1
			c0,0-0.1,0-0.2,0s-0.2,0-0.4,0c-0.3,0-0.5,0.1-0.8,0.2c-0.2,0.1-0.4,0.3-0.5,0.5s-0.2,0.5-0.2,0.7V34L125.1,33.9L125.1,33.9z"/>
		<path class="st4" d="M131.3,34.1c-0.4,0-0.8-0.1-1.1-0.2c-0.3-0.1-0.6-0.3-0.8-0.5s-0.3-0.5-0.4-0.9l0.9-0.2
			c0.1,0.3,0.2,0.6,0.5,0.7c0.2,0.2,0.5,0.2,0.9,0.2s0.8-0.1,1-0.3s0.4-0.4,0.4-0.6c0-0.2-0.1-0.4-0.2-0.5c-0.1-0.1-0.4-0.2-0.7-0.3
			l-1-0.2c-0.5-0.1-0.9-0.3-1.2-0.6s-0.4-0.6-0.4-1c0-0.3,0.1-0.6,0.3-0.9s0.5-0.5,0.8-0.6s0.7-0.2,1.1-0.2c0.4,0,0.8,0.1,1,0.2
			c0.3,0.1,0.5,0.3,0.7,0.5s0.3,0.5,0.4,0.8l-0.9,0.2c-0.1-0.2-0.2-0.4-0.4-0.6s-0.5-0.3-0.9-0.3s-0.7,0.1-0.9,0.2
			c-0.2,0.2-0.4,0.4-0.4,0.6s0.1,0.4,0.2,0.5c0.2,0.1,0.4,0.2,0.8,0.3l0.9,0.2c0.5,0.1,0.9,0.3,1.2,0.6s0.4,0.6,0.4,1
			c0,0.4-0.1,0.7-0.3,0.9c-0.2,0.3-0.5,0.5-0.8,0.6C132.1,34,131.7,34.1,131.3,34.1z"/>
		<path class="st4" d="M137.6,34.1c-0.6,0-1.1-0.1-1.5-0.4c-0.4-0.3-0.7-0.6-1-1.1c-0.2-0.5-0.3-1-0.3-1.6s0.1-1.2,0.3-1.6
			c0.2-0.5,0.5-0.8,0.9-1.1c0.4-0.3,0.9-0.4,1.4-0.4c0.3,0,0.6,0.1,0.9,0.2c0.3,0.1,0.6,0.3,0.8,0.5c0.3,0.2,0.5,0.5,0.6,0.9
			c0.2,0.4,0.2,0.9,0.2,1.4v0.4h-4.7v-0.8h4.1l-0.5,0.3c0-0.4-0.1-0.7-0.2-1c-0.1-0.3-0.3-0.5-0.6-0.7s-0.5-0.3-0.9-0.3
			s-0.7,0.1-0.9,0.3c-0.3,0.2-0.5,0.4-0.6,0.7c-0.1,0.3-0.2,0.6-0.2,0.9v0.5c0,0.4,0.1,0.8,0.2,1.1s0.4,0.5,0.6,0.7
			c0.3,0.2,0.6,0.2,1,0.2c0.2,0,0.5,0,0.6-0.1c0.2-0.1,0.4-0.2,0.5-0.3s0.2-0.3,0.3-0.5l0.9,0.3c-0.1,0.3-0.3,0.6-0.5,0.8
			s-0.5,0.4-0.8,0.5C138.3,34,138,34.1,137.6,34.1z"/>
		<path class="st4" d="M143.9,34.1c-0.5,0-1-0.1-1.4-0.4c-0.4-0.3-0.7-0.6-1-1.1s-0.3-1-0.3-1.6s0.1-1.2,0.3-1.6
			c0.2-0.5,0.5-0.8,1-1.1c0.4-0.3,0.9-0.4,1.4-0.4c0.3,0,0.6,0,0.8,0.1c0.3,0.1,0.5,0.2,0.7,0.3c0.2,0.1,0.4,0.3,0.6,0.5
			s0.3,0.4,0.4,0.7l-0.9,0.3c0-0.2-0.1-0.3-0.2-0.4s-0.2-0.2-0.3-0.3c-0.1-0.1-0.3-0.2-0.4-0.2s-0.3-0.1-0.5-0.1
			c-0.4,0-0.7,0.1-1,0.3c-0.3,0.2-0.4,0.5-0.6,0.8c-0.1,0.3-0.2,0.7-0.2,1.1s0.1,0.8,0.2,1.1c0.1,0.3,0.3,0.6,0.6,0.8s0.6,0.3,1,0.3
			c0.2,0,0.4,0,0.6-0.1s0.3-0.1,0.4-0.2c0.1-0.1,0.2-0.2,0.3-0.4s0.2-0.3,0.2-0.4l0.9,0.3c-0.1,0.3-0.2,0.5-0.4,0.7
			s-0.3,0.4-0.6,0.5s-0.5,0.3-0.7,0.3S144.2,34.1,143.9,34.1z"/>
		<path class="st4" d="M150.1,27.9v0.8H147v-0.8H150.1z M147.9,26.5h1v5.9c0,0.3,0.1,0.5,0.2,0.6c0.1,0.1,0.3,0.2,0.5,0.2
			c0.1,0,0.1,0,0.2,0c0.1,0,0.2,0,0.3,0l0.2,0.8c-0.1,0-0.2,0.1-0.3,0.1s-0.3,0-0.4,0c-0.5,0-0.9-0.1-1.2-0.4
			c-0.3-0.3-0.4-0.7-0.4-1.1v-6.1C148,26.5,147.9,26.5,147.9,26.5z"/>
		<path class="st4" d="M151.8,26.9c-0.2,0-0.3-0.1-0.5-0.2s-0.2-0.3-0.2-0.5s0.1-0.3,0.2-0.5c0.1-0.1,0.3-0.2,0.5-0.2
			s0.3,0.1,0.5,0.2c0.1,0.1,0.2,0.3,0.2,0.5s-0.1,0.3-0.2,0.5S152,26.9,151.8,26.9z M151.3,33.9v-6h1v6H151.3z"/>
		<path class="st4" d="M156.4,34.1c-0.5,0-1-0.1-1.4-0.4c-0.4-0.3-0.7-0.6-1-1.1s-0.3-1-0.3-1.6s0.1-1.2,0.3-1.6
			c0.2-0.5,0.5-0.8,1-1.1c0.4-0.3,0.9-0.4,1.4-0.4s1,0.1,1.4,0.4s0.7,0.6,1,1.1c0.2,0.5,0.3,1,0.3,1.6s-0.1,1.2-0.3,1.6
			s-0.5,0.8-1,1.1S157,34.1,156.4,34.1z M156.4,33.2c0.4,0,0.7-0.1,1-0.3s0.5-0.5,0.6-0.8s0.2-0.7,0.2-1.1s-0.1-0.8-0.2-1.1
			s-0.3-0.6-0.6-0.8c-0.3-0.2-0.6-0.3-1-0.3s-0.7,0.1-1,0.3c-0.3,0.2-0.4,0.5-0.6,0.8c-0.1,0.3-0.2,0.7-0.2,1.1s0.1,0.8,0.2,1.1
			c0.1,0.3,0.3,0.6,0.6,0.8C155.7,33.1,156,33.2,156.4,33.2z"/>
		<path class="st4" d="M161.6,30.3v3.6h-1v-6h0.9v1.5h-0.1c0.2-0.6,0.4-0.9,0.8-1.2c0.3-0.2,0.7-0.3,1.2-0.3c0.4,0,0.8,0.1,1.1,0.2
			c0.3,0.2,0.5,0.4,0.7,0.8c0.2,0.3,0.3,0.8,0.3,1.3V34h-1v-3.7c0-0.5-0.1-0.8-0.4-1.1c-0.2-0.3-0.6-0.4-1-0.4
			c-0.3,0-0.5,0.1-0.8,0.2c-0.2,0.1-0.4,0.3-0.5,0.5C161.6,29.7,161.6,30,161.6,30.3z"/>
	</g>
</g>
<line class="st13" x1="224.8" y1="39.9" x2="240.1" y2="34.7"/>
<line class="st13" x1="279.4" y1="153" x2="264.2" y2="157.8"/>
</svg>
